<svg id="Layer_1" data-name="Layer 1" xmlns="http://www.w3.org/2000/svg" viewBox="0 0 97.52 31.59"><defs><style>.cls-1{fill:#222958;}</style></defs><path class="cls-1" d="M35.45,6.94V6.58h3.92c.74,0,1.44,0,2.18,0s1.44-.09,2.17-.09a11.68,11.68,0,0,1,2.14.2,6.68,6.68,0,0,1,2.06.7,4.83,4.83,0,0,1,1.56,1.35,3.73,3.73,0,0,1,.62,2.16,3.21,3.21,0,0,1-.48,1.78,3.5,3.5,0,0,1-1.22,1.2,5.38,5.38,0,0,1-1.66.71,9.88,9.88,0,0,1-1.81.33v.14c.85.17,1.61.31,2.29.48a5.63,5.63,0,0,1,1.72.71,3.17,3.17,0,0,1,1.16,1.29,6.18,6.18,0,0,1,.53,2.22c.09,1.09.17,2,.2,2.61a7.67,7.67,0,0,0,.23,1.52,1.14,1.14,0,0,0,.39.73,1.28,1.28,0,0,0,.71.17,1.25,1.25,0,0,0,.85-.31l.59-.56.25.22c-.17.17-.34.34-.51.48a2.59,2.59,0,0,1-.56.37,3.19,3.19,0,0,1-.79.25,6.45,6.45,0,0,1-1.16.08,4.47,4.47,0,0,1-2.23-.45,3,3,0,0,1-1.18-1.12,3.55,3.55,0,0,1-.48-1.46,13.54,13.54,0,0,1-.12-1.49c0-.7-.08-1.41-.14-2.05A5.12,5.12,0,0,0,46.26,17a2.88,2.88,0,0,0-1-1.24,3.27,3.27,0,0,0-1.89-.48H41.63v9.36H44V25H35.48v-.37h2.4V6.94Zm7.23,8a4.5,4.5,0,0,0,1.83-.31,2.14,2.14,0,0,0,1-.84A3.12,3.12,0,0,0,46,12.59,10.34,10.34,0,0,0,46,11.21a9.47,9.47,0,0,0-.17-2,4.18,4.18,0,0,0-.5-1.35,2.14,2.14,0,0,0-1-.79,4.42,4.42,0,0,0-1.64-.25,3.32,3.32,0,0,0-.56,0c-.2,0-.4,0-.57.05v8Z"/><path class="cls-1" d="M60.91,6.58l4.49,12.9h0L70,6.58h6.52v.36h-2.4V24.68h2.4V25H68v-.36h2.37V6.94h0L63.93,25h-.42L57.07,6.94H57V24.68h2.4V25H54.22v-.36h2.37V6.94H54.22V6.58Z"/><path class="cls-1" d="M79.25,24.68l7.46-18.1h.7l7.88,18.1h2.23V25H88.77v-.36h2.42l-2.71-6.24H82.25l-2.6,6.24H82V25H77.05v-.36Zm3.14-6.61h6L85.29,11Z"/><path class="cls-1" d="M15.86,0A15.8,15.8,0,1,0,31.72,15.8,15.84,15.84,0,0,0,15.86,0Zm0,29.29A13.5,13.5,0,1,1,29.41,15.8,13.55,13.55,0,0,1,15.86,29.29Z"/><path class="cls-1" d="M15.8,3.29A12.54,12.54,0,1,0,28.39,15.82,12.57,12.57,0,0,0,15.8,3.29Zm0,24.84A12.31,12.31,0,1,1,28.17,15.82,12.34,12.34,0,0,1,15.8,28.13Z"/><path class="cls-1" d="M10.81,7.62a5.65,5.65,0,0,1,4-2.36c-2.46-.76-5,1.32-5,1.32Z"/><path class="cls-1" d="M9.17,18.24l-.48-2.08C7.17,16.33,5.59,19,5.59,19c-.65-1.38,0-3.85,0-3.85a9.39,9.39,0,0,0-1.27,3.12,11.48,11.48,0,0,0,1.35,3.51C6.1,18.1,8.16,17,8.16,17a6.53,6.53,0,0,0-.37,7.37C7.08,21.42,9.17,18.24,9.17,18.24Z"/><path class="cls-1" d="M6.1,17.23s2.17-1.6,2.79-1.6A3.06,3.06,0,0,0,6.58,16a6.41,6.41,0,0,1,.79-2.64A5.21,5.21,0,0,0,6.1,17.23Z"/><path class="cls-1" d="M8.16,14.67a5.73,5.73,0,0,1,1.3-2.89s-1.73.64-2.35,3.34c0,0,1.64-.19,2,.11A.93.93,0,0,0,8.16,14.67Z"/><path class="cls-1" d="M8.75,9.11a6.43,6.43,0,0,0-2.88,6.77c.34-3,3.47-5.12,3.47-5.12l.2-.14S12,9.19,12,7.17A2.29,2.29,0,0,1,9.54,8.46c-1.69-.34-3.87,1.63-3.87,1.63V10A12.13,12.13,0,0,0,4.23,14C5.84,9.5,8.75,9.11,8.75,9.11Z"/><path class="cls-1" d="M22.21,8.46a2.31,2.31,0,0,1-2.45-1.29c0,2,2.45,3.45,2.45,3.45l.2.14s3.13,2.11,3.47,5.12A6.47,6.47,0,0,0,23,9.11s2.91.42,4.55,4.94A12,12,0,0,0,26.11,10v.14S23.91,8.12,22.21,8.46Z"/><path class="cls-1" d="M9.74,7.9a3.48,3.48,0,0,0-2.09-.51,11.94,11.94,0,0,0-1,1A9,9,0,0,1,9.74,7.9Z"/><path class="cls-1" d="M9.15,6.75s.22-.59,1.66-1.27a4.08,4.08,0,0,0-1,.31,3.79,3.79,0,0,0-1.25.87l-.16.2A13.13,13.13,0,0,1,10.5,8S9.85,6.83,9.15,6.75Z"/><path class="cls-1" d="M21.48,24.57a5.68,5.68,0,0,0-1.21-4,3.37,3.37,0,0,1-.48,1.82,3.15,3.15,0,0,1-.12,3.12,2.9,2.9,0,0,0-.11-1.71,2.91,2.91,0,0,1-2.34,1.82,1.62,1.62,0,0,1-2.68,0,2.93,2.93,0,0,1-2.35-1.82,2.66,2.66,0,0,0-.11,1.71A3.2,3.2,0,0,1,12,22.37a3.27,3.27,0,0,1-.48-1.82,5.72,5.72,0,0,0-1.22,4,7.13,7.13,0,0,1-.53-5.06,8,8,0,0,0-.51,6,13.5,13.5,0,0,0,1.52.9,5.91,5.91,0,0,1,.37-2.56,5.24,5.24,0,0,0,.59,2.95,6.46,6.46,0,0,0,1.08.34,2.34,2.34,0,0,1,0-.9c.11-.34.7.31,1.15,1.15a14.91,14.91,0,0,0,1.61.17,1,1,0,0,1-.17-.48l.51.23.51-.23a.78.78,0,0,1-.17.48,9.45,9.45,0,0,0,1.61-.17c.45-.84,1.07-1.49,1.16-1.15a2.56,2.56,0,0,1,0,.9A8.91,8.91,0,0,0,20,26.81a4.74,4.74,0,0,0,.62-2.92A5.75,5.75,0,0,1,21,26.45a9.65,9.65,0,0,0,1.52-.9,8.09,8.09,0,0,0-.51-6A6.92,6.92,0,0,1,21.48,24.57Z"/><path class="cls-1" d="M15.86,23.75a2.61,2.61,0,0,1-.87,1.1c.42.14.87,1.18.87,1.18s.46-1,.88-1.18A2.86,2.86,0,0,1,15.86,23.75Z"/><path class="cls-1" d="M26.14,19S24.55,16.33,23,16.16l-.48,2.08s2.09,3.18,1.38,6.13A6.44,6.44,0,0,0,23.51,17s2.09,1.1,2.51,4.78a11.76,11.76,0,0,0,1.36-3.51,10.07,10.07,0,0,0-1.27-3.12A6.56,6.56,0,0,1,26.14,19Z"/><path class="cls-1" d="M25,8.43c-.29-.36-.63-.7-1-1A3.41,3.41,0,0,0,22,7.9C22.52,7.7,24.47,8.26,25,8.43Z"/><path class="cls-1" d="M4.21,15.07a8.29,8.29,0,0,0,0,2.3A25.17,25.17,0,0,1,5.7,12.65,4.83,4.83,0,0,0,4.21,15.07Z"/><path class="cls-1" d="M27.49,15.07A4.8,4.8,0,0,0,26,12.65a24.91,24.91,0,0,1,1.5,4.72A8.33,8.33,0,0,0,27.49,15.07Z"/><path class="cls-1" d="M24.27,13.18a6.41,6.41,0,0,1,.79,2.64,3.06,3.06,0,0,0-2.31-.36c.62,0,2.79,1.6,2.79,1.6A5.45,5.45,0,0,0,24.27,13.18Z"/><path class="cls-1" d="M24.47,14.92a4.39,4.39,0,0,0-2.34-3.34,5.75,5.75,0,0,1,1.3,2.9c-.6-.12-1,.53-1,.53C22.83,14.73,24.47,14.92,24.47,14.92Z"/><path class="cls-1" d="M15.86,10.46a5,5,0,0,0,0-5.54A5,5,0,0,0,15.86,10.46Z"/><path class="cls-1" d="M20.91,7.62l1-1s-2.56-2.11-5-1.32A5.63,5.63,0,0,1,20.91,7.62Z"/><path class="cls-1" d="M22.58,6.75C21.87,6.86,21.22,8,21.22,8a15,15,0,0,1,2.15-1.18c-.06-.06-.11-.14-.17-.2A4.4,4.4,0,0,0,22,5.76a4.47,4.47,0,0,0-1.05-.31C22.35,6.16,22.58,6.75,22.58,6.75Z"/><path class="cls-1" d="M11.94,9.22c1.44-.28,2.85,1.26,2.85,1.26a6.67,6.67,0,0,1,0-4.58A6.25,6.25,0,0,0,11.94,9.22Z"/><path class="cls-1" d="M19.76,9.22A6.25,6.25,0,0,0,16.91,5.9a6.74,6.74,0,0,1,0,4.58S18.32,8.91,19.76,9.22Z"/><path class="cls-1" d="M18.91,21.9c-.45.14-.87.25-1.27.39v.08l.71.09c-.17.64-.63.7-2.26.22a1.82,1.82,0,0,1,.65-1.43c.39-.39.59-.53.87-.79s0-.36-.14-.36H14.25c-.11,0-.53,0-.14.36s.45.4.88.79a1.89,1.89,0,0,1,.65,1.43c-1.64.48-2.09.42-2.26-.22l.7-.09v-.08l-1.27-.39c.09,1.26.54,1.65,1.67,1.4.51-.11,1-.28,1.41.28.4-.56.9-.39,1.38-.28C18.37,23.55,18.83,23.19,18.91,21.9Zm-3-.51a.11.11,0,0,1-.12.08.18.18,0,0,1-.08-.08,3.73,3.73,0,0,0-.79-.82c-.11-.08,0-.11,0-.11h1.75s.2,0,0,.14A2.93,2.93,0,0,0,16,21.39Z"/><path class="cls-1" d="M10.9,12.85c.28-.34.65-.65.93-1A1.89,1.89,0,0,1,13.55,11c.2,0,.39-.06.65-.09a1.89,1.89,0,0,0-1.3-1,2.08,2.08,0,0,0-2.4,1.27L9.06,13.49A2.21,2.21,0,0,0,10.9,12.85Z"/><path class="cls-1" d="M22.64,13.46c-.51-.81-1-1.63-1.5-2.41a4.69,4.69,0,0,0-.62-.79c-.62-.7-2.71-.45-2.91.67A2.15,2.15,0,0,1,20,12a5.5,5.5,0,0,1,.45.53A2.49,2.49,0,0,0,22.64,13.46Z"/><path class="cls-1" d="M12.16,20.35a1.52,1.52,0,0,0,1.53,1.12c-1.47-.76-1.22-2-1-3.29-.71.31-1-.08-1.24-.59a7.53,7.53,0,0,1-.6-4.24,5.19,5.19,0,0,0-.22.7,6.21,6.21,0,0,0,.53,4C11.52,18.78,12.11,18.75,12.16,20.35Z"/><path class="cls-1" d="M19.53,20.35c.06-1.6.65-1.57,1-2.3A6,6,0,0,0,21,14a4.92,4.92,0,0,0-.23-.71,7.71,7.71,0,0,1-.59,4.25c-.25.48-.54.9-1.24.59.22,1.29.51,2.53-1,3.29A1.46,1.46,0,0,0,19.53,20.35Z"/><path class="cls-1" d="M14.09,15.21s0-.09-.12-.17c-.45-.31-1.44-1-1.89-1.21,0,0-.14-.09-.08,0,.42.45.9,1.09.9,1.09h-1s-.31,0-.08.17c.39.31.82.93,1.33.93s.56.48.59.93c0,.64.08,1.29.14,1.94a.46.46,0,0,0,.2,0c-.09-1-.2-2.08-.29-3.12a2.39,2.39,0,0,1,.09-.45A.53.53,0,0,0,14.09,15.21Z"/><path class="cls-1" d="M19.62,13.83c-.45.25-1.44.9-1.89,1.21-.17.11-.15.14-.12.17s.2,0,.2,0a2.39,2.39,0,0,1,.09.45c-.09,1-.17,2.08-.29,3.12a.46.46,0,0,1,.2,0c.06-.65.09-1.29.14-1.94,0-.45,0-1,.59-.93s.91-.59,1.33-.92c.23-.17-.08-.17-.08-.17h-1s.48-.65.9-1.1C19.79,13.74,19.62,13.83,19.62,13.83Z"/><path class="cls-1" d="M14.62,12.54c.17.73,1,1.2,1.21,2,.17-.79,1.08-1.23,1.22-2a3.72,3.72,0,0,1-1.22.39A3.73,3.73,0,0,1,14.62,12.54Z"/></svg>